<?xml version="1.0" encoding="UTF-8" standalone="no"?>
<!DOCTYPE svg PUBLIC "-//W3C//DTD SVG 1.1//EN" "http://www.w3.org/Graphics/SVG/1.1/DTD/svg11.dtd">
<!-- Created with Vectornator (http://vectornator.io/) -->
<svg height="100%" stroke-miterlimit="10" style="fill-rule:nonzero;clip-rule:evenodd;stroke-linecap:round;stroke-linejoin:round;" version="1.1" viewBox="0 0 1024 1024" width="100%" xml:space="preserve" xmlns="http://www.w3.org/2000/svg" xmlns:xlink="http://www.w3.org/1999/xlink">
<defs/>
<g id="Layer-1">
<path d="M420.54 774.154C377.597 714.808 481.979 716.619 491.419 715.887C501.007 715.145 603.3 714.224 561.855 776.381C537.878 812.339 516.298 811.178 490.245 811.178C464.193 811.178 448.131 812.283 420.54 774.154Z" fill="none" opacity="1" stroke="#ffffff" stroke-linecap="butt" stroke-linejoin="round" stroke-width="31.3136"/>
<path d="M403.506 705.317C403.506 705.317 444.89 681.647 491.354 681.618C536.803 681.59 578.063 702.995 578.063 702.995L578.063 711.657C578.063 711.657 538.558 690.055 491.095 690.277C443.631 690.498 403.506 713.979 403.506 713.979L403.506 705.317Z" fill="none" opacity="1" stroke="#ffffff" stroke-linecap="butt" stroke-linejoin="round" stroke-width="31.3136"/>
<path d="M403.506 677.108C403.506 677.108 444.89 653.437 491.354 653.408C536.803 653.38 578.063 674.786 578.063 674.786L578.063 683.447C578.063 683.447 538.558 661.845 491.095 662.067C443.631 662.288 403.506 685.77 403.506 685.77L403.506 677.108Z" fill="none" opacity="1" stroke="#ffffff" stroke-linecap="butt" stroke-linejoin="round" stroke-width="31.3136"/>
<path d="M287.009 387.157C287.009 299.816 348.33 226.723 476.546 229.2C603.987 231.663 675.001 309.718 675.001 389.635C675.001 442.287 632.602 543.535 587.437 554.982C557.935 562.459 591.488 658.836 559.049 639.269C520.027 615.73 463.166 618.208 411.416 643.861C381.907 658.488 415.225 558.626 382.531 554.211C325.318 546.486 287.009 439.001 287.009 387.157Z" fill="none" opacity="1" stroke="#ffffff" stroke-linecap="butt" stroke-linejoin="round" stroke-width="31.3136"/>
<path d="M446.443 630.597L404.796 446.458L450.13 342.731L474.402 516.392L527.448 393.288L563.011 452.206L523.372 623.164" fill="none" opacity="1" stroke="#ffffff" stroke-linecap="butt" stroke-linejoin="round" stroke-width="31.3136"/>
<path d="M635.889 861.385L744.113 860.374L924.792 929.152L826.188 758.241L823.784 664.502" fill="none" opacity="1" stroke="#ffffff" stroke-linecap="butt" stroke-linejoin="round" stroke-width="68.7881"/>
<path d="M335.075 148.301L166.305 148.792L164.553 337.132" fill="none" opacity="1" stroke="#ffffff" stroke-linecap="butt" stroke-linejoin="round" stroke-width="68.7881"/>
<path d="M629.075 148.301L815.617 148.792L817.553 337.132" fill="none" opacity="1" stroke="#ffffff" stroke-linecap="butt" stroke-linejoin="round" stroke-width="68.7881"/>
<path d="M338.649 859.842L165.86 855.155L166.485 672.048" fill="none" opacity="1" stroke="#ffffff" stroke-linecap="butt" stroke-linejoin="round" stroke-width="68.7881"/>
</g>
</svg>
